P2
# comments
3 3
5
1 5 3
0 1 2
0 2 4
