P2
# comments
3 3
6
5 3 1
6 2 4
3 0 1
