P2
# comments
100 100
50
21 23 20 32 26 21 10 31 27 49 4 7 28 36 9 17 40 2 28 4 9 1 16 12 40 45 29 19 7 47 50 2 44 19 34 20 40 19 0 16 17 29 49 45 14 32 36 4 35 39 8 44 14 49 5 3 17 8 47 24 30 46 1 23 14 35 43 29 28 17 19 20 47 42 39 35 24 50 13 33 38 46 0 1 44 31 4 36 13 0 9 43 21 35 41 9 45 7 12 22
25 32 42 46 48 5 4 21 4 18 28 42 13 29 17 32 9 21 17 47 46 0 40 16 36 4 0 30 11 12 26 10 18 43 30 16 48 35 11 26 2 40 17 40 43 34 21 26 29 12 22 49 13 36 40 23 40 40 27 26 1 2 36 20 19 16 10 16 25 21 42 1 10 33 41 27 41 37 2 44 49 25 43 36 35 32 33 25 46 9 25 21 12 10 41 31 0 0 22 50
47 38 0 6 46 16 34 36 2 10 30 25 35 22 36 45 28 18 19 23 28 18 44 14 28 9 19 3 34 41 27 30 3 28 11 49 18 19 34 20 29 38 19 39 34 29 33 11 48 26 8 50 44 27 13 46 10 32 23 18 48 0 23 25 2 8 23 20 1 31 14 30 19 33 43 27 37 50 13 34 50 46 33 43 22 20 13 6 26 36 50 48 10 22 22 12 30 19 32 31
0 20 35 44 28 2 45 14 1 7 48 26 3 4 18 50 49 5 6 24 16 5 47 26 1 18 13 5 12 19 10 37 40 19 30 17 21 24 31 48 6 2 23 9 31 15 8 29 21 39 2 37 18 49 37 19 42 50 49 3 19 8 14 8 2 18 50 48 16 4 45 22 6 42 31 37 32 14 15 27 2 42 38 46 15 24 39 31 49 38 8 17 20 22 50 22 40 49 20 5
27 39 28 33 5 33 44 37 47 33 13 24 24 25 19 13 49 7 44 21 45 26 38 40 48 11 36 37 34 5 17 10 19 45 17 24 27 10 35 49 43 22 22 42 47 15 4 19 22 23 41 42 49 2 31 47 39 16 7 22 47 24 7 40 43 24 38 45 35 22 43 27 18 39 18 39 3 48 7 50 20 22 41 43 50 46 39 38 37 21 34 7 45 41 47 38 15 34 32 50
30 49 0 48 37 44 36 14 41 17 13 35 40 29 27 13 24 41 0 10 11 34 42 30 25 38 42 14 21 23 13 25 46 38 22 6 31 32 20 46 50 8 4 13 37 32 26 10 47 0 46 7 34 37 37 33 50 3 21 45 0 8 20 47 47 42 27 1 24 48 48 48 30 26 10 16 7 36 0 28 36 20 35 44 7 47 1 6 50 22 0 50 31 45 20 1 37 48 2 35
19 24 32 49 0 42 39 32 1 39 10 11 9 19 4 41 40 30 21 39 27 46 13 7 41 7 33 1 4 35 10 48 9 42 46 34 7 34 15 33 48 25 44 31 19 22 46 8 2 16 22 29 36 9 10 26 16 43 1 21 27 11 43 10 27 39 18 34 47 34 16 18 33 34 49 26 6 44 35 8 34 6 11 20 15 21 20 31 13 47 26 14 7 19 50 35 32 17 43 2
25 34 21 33 17 44 8 23 12 43 5 20 23 16 40 38 37 35 44 24 31 44 39 12 37 12 21 18 29 14 46 29 22 16 11 39 34 19 37 46 37 42 41 9 8 4 48 19 39 15 44 44 8 6 31 20 43 1 12 21 40 7 24 11 48 35 25 32 29 11 1 15 2 16 24 10 21 46 4 34 35 48 28 18 28 33 38 20 34 50 15 49 32 40 9 29 49 34 35 27
45 11 16 22 27 15 6 48 35 10 32 20 32 34 38 9 16 50 29 24 49 19 22 4 33 32 34 31 40 43 33 9 3 49 31 31 38 37 2 23 22 8 17 3 42 29 13 7 28 16 6 0 9 28 5 42 34 13 23 24 5 5 7 9 28 38 14 41 49 41 13 20 50 4 24 41 33 11 23 35 1 29 9 11 6 39 2 15 1 50 39 32 4 46 15 7 7 29 48 5
44 35 0 43 13 49 8 20 34 31 4 35 34 38 46 14 27 23 29 2 22 42 8 1 11 23 8 18 26 30 49 20 39 23 12 1 21 20 21 4 25 50 13 33 11 9 22 38 6 0 15 28 17 23 29 28 47 11 21 22 41 19 16 3 16 29 29 37 23 50 15 23 23 28 5 35 11 27 47 17 2 36 20 19 9 49 21 30 35 42 26 25 35 43 3 0 46 32 37 18
6 26 41 29 29 21 13 14 22 35 32 24 20 26 17 3 24 39 33 8 30 34 8 15 26 36 15 46 17 27 13 23 27 29 2 5 24 40 20 46 49 26 20 19 26 11 22 50 50 30 33 4 13 15 19 13 0 8 8 42 9 46 15 11 49 42 16 22 5 10 18 4 10 12 23 36 23 19 10 23 23 17 1 10 6 45 23 31 2 5 22 37 26 37 48 24 2 38 21 8
23 39 12 7 25 9 18 22 2 28 45 26 19 20 10 25 14 34 30 17 13 1 28 39 13 50 38 15 11 8 23 34 21 9 42 46 43 9 17 46 11 37 46 4 6 5 3 46 13 33 12 27 34 14 40 47 13 27 37 24 9 34 33 30 44 49 50 36 32 42 5 43 2 0 47 33 6 50 28 19 6 14 20 40 28 10 11 15 11 22 14 46 5 47 25 23 45 50 9 0
41 14 43 17 40 13 50 20 37 2 39 17 16 34 6 19 18 42 34 29 13 22 24 19 18 24 16 37 48 25 37 12 14 3 29 28 41 2 48 1 4 10 18 21 44 50 40 11 15 48 15 29 20 13 22 12 11 38 24 8 38 35 20 26 13 23 3 28 26 0 30 4 10 22 50 29 46 13 40 11 11 29 14 5 17 36 42 28 48 15 11 35 0 5 35 38 29 38 15 29
12 45 33 48 42 33 26 11 46 40 22 31 19 36 10 36 46 2 38 44 17 49 2 42 4 38 29 7 50 19 36 12 13 43 9 29 50 9 41 20 49 37 25 42 23 36 1 43 38 40 36 29 12 13 46 16 25 49 48 24 17 33 10 5 0 19 8 24 28 49 44 1 10 19 43 33 29 45 50 16 34 10 19 46 23 39 37 48 38 34 46 4 42 6 34 16 50 43 40 2
41 8 3 0 1 46 7 30 14 7 20 22 17 39 18 14 28 29 36 40 37 5 18 2 11 2 43 36 45 33 38 9 15 15 35 16 35 16 46 50 48 15 21 39 28 13 2 30 16 12 19 28 18 38 30 3 14 48 39 8 4 0 17 19 40 26 35 25 43 4 49 14 19 44 3 21 32 30 1 48 43 45 50 10 32 4 13 46 1 27 28 5 27 20 24 17 46 33 16 12
37 14 27 30 32 30 0 13 34 1 36 26 21 35 10 2 13 24 23 14 25 25 19 1 45 17 43 15 50 8 1 10 47 2 40 29 6 41 16 41 16 1 16 37 11 27 14 24 25 11 39 50 10 32 25 30 24 43 45 48 0 20 8 22 23 48 0 29 12 16 19 3 43 10 14 3 11 2 27 10 13 40 9 49 22 8 28 20 0 47 17 26 16 50 48 39 48 22 43 34
38 36 11 30 46 26 7 6 28 35 16 16 49 50 14 45 33 16 14 7 12 6 33 28 5 4 42 27 26 34 11 39 44 47 43 40 47 25 20 25 34 11 15 32 10 3 27 17 19 15 25 31 21 32 33 27 11 24 3 11 32 39 24 26 36 17 40 32 42 9 31 25 20 20 31 5 23 7 47 16 23 21 47 18 28 4 45 39 28 49 24 35 37 49 10 47 15 50 29 31
33 34 30 3 4 10 33 27 43 29 18 40 25 14 7 2 43 27 15 21 25 39 5 36 37 40 7 26 39 10 31 21 44 35 49 48 46 31 50 12 35 17 1 9 5 33 36 49 9 25 44 8 13 23 19 25 12 26 25 25 36 31 46 3 15 19 1 10 24 25 47 8 16 22 42 21 5 27 44 39 26 11 48 40 34 41 39 46 16 38 20 26 18 41 29 34 34 4 18 7
3 15 41 19 37 6 15 16 8 8 30 34 20 1 48 28 42 36 24 32 24 18 32 42 8 10 50 42 40 18 24 43 7 39 12 18 45 1 35 2 9 39 37 3 40 34 32 31 45 30 37 43 48 18 8 31 2 8 47 42 0 45 9 7 33 46 25 2 47 34 4 30 22 15 34 11 24 40 42 43 44 2 35 15 20 43 20 23 25 17 14 25 11 23 32 19 43 7 21 39
41 25 19 13 15 27 49 13 41 15 5 34 17 14 23 38 6 44 10 6 10 49 31 46 47 38 14 39 19 35 28 34 35 47 21 24 23 20 37 13 35 42 21 1 5 44 13 36 37 23 16 21 22 22 17 18 9 31 31 2 41 8 36 50 29 7 23 1 27 9 39 36 25 34 11 4 28 25 14 39 48 5 10 44 27 27 36 36 32 17 12 47 50 48 46 29 4 18 4 5
1 18 15 0 1 27 29 29 1 44 43 23 49 2 42 50 3 1 9 35 43 21 32 43 18 27 21 48 20 50 2 46 17 18 47 19 19 25 22 20 43 14 17 15 41 33 14 44 35 23 29 27 44 35 44 12 36 39 34 30 39 36 26 5 28 22 24 47 47 21 41 14 35 33 29 0 15 44 44 50 16 47 1 35 31 45 21 42 34 4 21 22 14 47 1 17 18 26 13 40
21 29 3 30 11 6 30 26 50 24 0 41 20 1 50 26 20 20 42 3 49 12 25 12 34 27 29 26 27 17 15 22 20 43 1 31 24 32 31 48 30 5 38 24 31 11 24 1 5 15 4 3 2 4 41 36 5 44 36 6 10 1 28 4 18 3 9 16 9 41 14 13 20 26 38 1 38 36 27 43 26 31 21 28 9 11 38 14 4 23 45 40 49 47 44 42 0 3 7 34
18 46 48 38 22 9 13 34 45 40 26 45 46 47 47 4 32 34 44 37 32 12 26 4 9 44 46 34 47 28 17 39 23 39 1 19 22 39 2 42 29 29 36 49 50 33 27 32 41 20 43 22 33 43 1 16 36 47 50 7 49 41 20 47 30 21 15 26 10 43 17 13 46 3 36 45 36 12 0 0 33 17 23 40 9 24 5 20 45 29 1 18 19 21 14 23 17 3 50 1
46 16 14 41 44 50 10 29 11 35 4 18 2 27 32 36 25 37 5 44 40 31 11 34 2 50 6 44 3 30 45 23 21 33 14 14 6 49 18 42 33 22 10 35 23 16 21 22 28 0 15 17 32 1 0 8 25 32 1 28 36 46 26 6 2 14 46 8 12 38 50 45 34 34 4 31 0 50 2 28 50 42 19 31 17 20 13 43 26 14 45 11 34 20 43 36 34 12 44 20
50 18 40 7 26 44 38 0 43 14 2 16 5 22 22 23 16 35 40 42 50 34 2 33 4 19 44 12 31 11 7 4 3 47 11 30 14 49 30 31 37 7 21 43 29 43 40 19 28 3 10 1 37 37 8 15 6 1 2 37 38 9 16 41 30 27 20 18 0 25 23 37 32 44 3 35 37 43 3 39 20 38 40 7 24 48 47 4 24 49 16 11 32 32 1 36 8 47 3 8
46 26 46 1 20 23 10 31 41 13 19 10 25 8 17 23 30 14 28 28 12 44 39 19 50 15 4 7 36 8 41 31 8 10 6 28 33 16 33 23 3 1 34 28 34 25 0 39 39 28 16 26 46 30 45 45 45 23 27 4 31 17 9 14 1 15 16 34 31 50 32 34 25 15 36 9 40 36 48 3 39 38 29 8 17 48 3 36 20 30 40 26 21 49 14 22 13 30 30 44
29 11 1 4 0 37 38 41 48 35 44 36 22 47 44 14 18 21 50 12 25 40 12 20 12 26 42 26 6 47 44 9 7 20 13 8 31 0 23 28 9 41 38 6 11 6 20 29 27 44 15 27 33 28 47 20 3 13 46 34 9 13 44 41 7 6 23 39 32 20 16 15 10 29 21 21 35 15 24 36 9 40 12 16 17 9 36 45 47 5 29 5 44 47 20 0 27 44 39 8
13 30 49 49 8 19 19 17 9 18 2 18 7 15 34 49 49 45 43 45 50 46 24 43 16 44 18 44 11 31 26 50 35 24 22 17 18 15 34 27 33 37 45 40 26 2 12 24 21 30 43 21 25 16 38 16 34 30 9 46 11 35 19 46 9 41 38 1 5 21 28 39 32 47 2 32 49 15 30 20 45 22 15 44 12 27 9 47 7 43 16 43 28 35 12 11 50 50 12 4
46 14 17 1 10 20 34 33 9 13 27 3 10 42 21 22 44 31 18 25 23 34 17 25 18 29 10 42 3 22 47 49 10 13 50 20 7 33 3 16 21 30 44 31 47 15 2 14 20 46 39 17 29 5 43 22 8 2 13 11 50 34 34 9 22 34 4 29 41 32 20 36 11 13 41 32 28 18 20 48 13 8 15 16 13 32 12 47 8 0 32 7 34 16 42 5 24 46 9 39
27 29 25 12 42 15 19 45 33 39 16 20 22 5 11 35 37 23 5 20 23 38 27 32 3 43 11 1 12 45 40 39 23 14 26 40 4 19 8 11 32 24 32 3 4 43 13 15 40 18 35 38 5 37 19 33 29 4 34 42 50 24 4 47 12 4 36 41 23 18 2 30 17 8 33 21 25 46 36 14 14 46 1 44 32 45 1 10 24 35 26 23 33 5 44 20 9 4 10 7
22 37 11 39 45 44 9 19 40 20 8 28 15 34 21 21 3 47 5 27 6 6 24 13 11 17 33 45 21 18 26 44 4 37 6 50 31 41 43 45 35 25 22 24 9 17 45 37 14 50 13 20 5 11 7 41 28 41 36 24 8 36 42 12 23 48 36 28 12 29 22 47 3 18 20 37 35 14 23 23 39 10 17 18 21 25 9 24 40 45 22 48 30 13 34 27 35 20 4 22
23 0 18 0 18 13 38 3 1 35 0 40 20 43 8 15 17 42 13 6 10 35 28 14 22 11 42 32 31 20 3 28 21 46 29 39 8 16 16 10 25 42 24 45 34 6 35 0 48 48 31 7 33 8 22 29 19 13 10 25 7 13 2 28 9 31 42 17 21 7 1 21 49 26 15 32 32 24 6 30 22 37 11 29 19 33 7 39 20 18 38 28 5 14 5 39 46 47 31 41
29 32 11 1 32 1 8 14 25 14 18 21 26 29 50 45 12 7 7 6 50 19 34 4 34 14 44 3 10 24 44 13 30 5 15 12 31 23 0 5 37 18 1 37 21 0 6 7 7 38 14 31 7 48 36 41 11 3 44 47 1 11 9 5 16 24 17 21 47 42 1 8 9 2 19 5 2 25 12 35 13 26 15 45 49 25 35 34 2 2 30 28 13 14 34 4 12 25 25 9
17 26 42 0 2 10 30 5 10 43 40 48 43 29 42 41 29 0 50 31 2 3 9 40 17 17 44 30 16 44 13 7 44 29 8 47 13 38 1 23 4 15 20 48 18 36 12 47 36 11 2 12 15 11 2 6 2 46 36 18 13 49 26 7 1 8 3 15 20 29 38 25 18 33 47 36 18 8 7 4 45 9 41 9 45 43 15 47 13 26 39 26 49 39 33 0 47 10 15 42
13 2 41 31 9 37 42 28 45 49 6 39 32 47 22 26 14 12 47 27 38 35 27 36 24 35 36 45 45 0 36 33 28 26 13 11 37 29 39 6 1 19 19 33 41 42 8 4 28 4 5 15 14 32 0 12 16 11 6 36 36 17 18 38 17 5 50 29 35 12 35 36 6 3 44 47 19 26 25 47 5 4 11 19 10 37 31 27 22 11 37 7 2 4 20 45 9 19 23 18
31 7 29 11 35 22 7 4 22 6 25 27 35 11 46 46 48 0 22 44 12 8 25 39 37 45 33 20 38 5 39 19 37 42 4 22 38 37 0 9 43 25 37 2 36 32 48 7 7 44 25 19 26 0 32 12 45 15 6 33 45 19 26 32 10 30 28 22 16 2 32 34 1 18 10 12 24 7 19 5 0 19 49 0 19 31 37 38 46 43 20 14 12 20 20 47 25 48 19 15
24 0 23 26 43 33 38 41 40 31 47 14 50 45 39 43 50 25 31 45 43 25 34 29 20 3 25 45 26 18 34 50 43 7 25 9 14 37 0 29 43 21 43 16 40 6 9 14 31 40 33 48 14 16 26 8 20 26 2 46 44 11 45 37 18 45 46 32 5 20 10 48 15 28 14 30 34 23 44 39 37 26 11 25 43 37 34 37 37 10 32 31 21 0 42 39 19 11 46 25
6 30 22 21 32 10 25 15 7 43 29 44 19 14 44 36 0 27 22 12 11 28 43 33 28 8 46 48 19 15 22 25 46 18 21 27 29 20 17 10 13 20 4 32 34 22 42 8 23 13 20 34 41 37 16 43 45 37 40 14 1 36 13 47 29 8 49 32 29 40 42 42 9 20 23 17 42 39 25 14 1 20 49 16 6 39 8 26 25 23 40 1 33 27 48 11 36 20 17 14
9 9 5 43 29 2 9 46 41 9 34 16 3 6 32 34 46 14 9 45 11 23 46 45 0 18 30 10 38 48 24 22 31 3 39 34 30 23 29 45 6 13 10 9 19 16 43 39 4 27 34 41 50 3 35 24 21 39 34 34 10 32 30 41 9 18 25 39 15 28 33 21 15 17 4 9 33 22 48 12 49 5 2 48 34 11 47 4 24 30 12 35 37 42 50 46 35 24 35 50
27 42 21 42 9 25 0 16 21 23 28 19 2 4 42 36 15 38 41 40 42 27 49 28 19 48 24 28 47 33 27 23 24 22 14 7 22 40 24 43 12 26 37 14 31 28 25 46 15 15 9 31 16 7 9 35 5 7 37 1 40 39 49 13 35 37 46 31 26 19 49 12 45 35 1 50 12 26 20 1 15 29 32 31 37 15 41 16 22 1 42 11 40 14 50 25 0 45 5 1
38 3 38 32 12 13 6 49 39 26 50 28 4 6 34 15 21 49 5 44 50 47 29 40 10 28 39 36 47 18 37 34 47 24 16 8 38 22 7 0 22 31 3 26 11 37 16 33 9 21 0 8 43 29 22 27 32 10 12 28 3 23 12 50 22 2 32 9 49 13 34 20 19 37 20 30 48 36 37 6 32 37 40 24 41 11 25 22 47 12 50 50 35 36 23 6 12 29 40 10
43 24 4 36 35 25 15 33 35 2 13 16 13 2 14 3 14 40 25 35 1 50 34 10 9 31 17 22 9 6 32 26 4 11 11 40 36 1 47 45 3 9 11 41 37 50 45 25 39 44 9 14 43 17 25 2 48 16 49 6 22 4 7 1 15 18 41 25 44 37 20 21 20 5 12 31 4 6 5 44 50 39 32 17 5 6 44 2 22 42 34 19 46 41 20 36 33 35 10 27
46 30 48 40 35 34 21 40 14 0 7 14 40 39 5 45 20 23 48 16 14 5 9 34 46 3 19 2 38 30 29 33 34 1 48 19 9 18 33 24 18 40 12 7 2 17 27 47 14 49 38 2 3 47 36 49 0 30 0 12 34 4 20 17 30 17 10 13 35 17 37 27 31 49 9 8 40 36 4 3 34 42 30 11 13 16 9 38 20 34 24 28 12 44 19 16 10 4 30 19
21 41 21 2 40 30 10 3 40 39 32 48 5 11 8 18 1 42 30 46 50 3 23 37 22 43 2 6 47 6 26 42 48 47 44 11 0 28 39 40 17 45 11 22 6 19 40 32 10 44 28 9 21 25 46 43 42 23 50 12 3 50 4 0 20 22 36 20 0 25 34 17 19 45 39 50 13 2 32 48 20 34 31 41 33 1 8 25 49 7 11 1 31 40 27 0 12 12 45 12
11 28 3 31 47 42 4 34 18 10 31 38 18 36 28 1 37 36 0 35 17 11 11 22 1 38 22 38 50 41 50 11 43 27 16 39 18 45 22 36 5 27 48 23 13 25 49 24 36 49 34 2 35 45 50 10 32 21 22 5 37 46 41 29 22 6 18 40 1 14 50 31 42 47 28 29 46 27 2 31 50 36 8 8 30 7 18 36 2 14 42 39 9 32 43 31 13 35 45 39
49 44 19 14 14 47 43 10 48 46 15 48 5 48 5 10 29 49 46 6 12 11 19 22 18 11 27 31 46 22 19 45 40 12 33 4 33 26 39 31 46 28 2 25 26 32 35 29 4 5 35 42 16 4 38 34 15 14 39 36 36 32 4 26 44 37 4 1 12 17 6 32 45 8 7 45 14 42 24 19 21 8 10 38 12 22 46 2 36 35 38 47 16 42 47 35 28 0 10 15
17 16 47 11 49 3 6 37 20 4 5 41 12 40 2 50 11 49 1 22 7 13 18 48 4 14 6 6 39 16 21 5 32 18 41 4 46 21 42 15 25 21 6 12 11 33 11 47 31 12 43 12 50 10 10 3 49 16 34 37 33 5 16 39 48 7 44 43 2 9 33 28 30 13 40 15 46 0 12 27 37 29 13 36 14 23 13 12 14 47 24 47 26 14 9 23 46 27 41 49
36 23 0 16 36 40 31 31 14 17 32 25 47 46 35 35 43 22 21 6 18 45 27 19 34 37 16 29 13 6 27 50 3 27 40 13 41 45 19 29 37 0 3 7 20 12 42 38 34 12 44 27 32 21 46 15 7 11 44 45 43 46 18 46 47 7 9 12 27 28 41 13 2 19 20 48 31 11 35 15 23 2 16 4 23 36 44 4 47 38 24 13 7 42 34 3 24 17 15 0
19 6 13 21 50 33 43 30 18 27 19 15 30 35 45 27 20 38 6 42 50 30 4 6 21 12 10 45 29 50 19 48 30 32 44 29 39 36 9 6 38 2 22 42 38 16 18 32 28 24 23 28 28 2 34 50 14 18 18 18 43 38 15 22 44 8 26 33 45 9 39 32 11 35 48 23 25 15 5 3 14 2 31 42 29 14 15 44 7 8 36 50 20 0 21 13 34 47 20 28
30 34 34 42 18 31 14 44 20 44 21 8 47 1 0 25 40 40 43 47 22 28 46 42 3 42 30 37 12 50 39 43 7 22 34 26 27 22 44 21 16 14 30 37 40 4 11 29 18 29 26 41 31 46 6 34 37 10 20 24 35 8 16 42 4 24 42 5 20 35 1 36 23 31 47 12 9 8 42 27 11 42 42 42 37 49 26 49 8 20 22 43 3 12 9 32 10 0 12 30
36 13 41 33 44 37 46 2 19 11 3 30 2 46 47 13 18 47 11 0 41 7 18 44 19 27 0 3 27 12 34 37 25 49 20 18 9 40 45 29 25 22 33 27 17 3 40 9 50 26 10 41 33 28 8 27 29 8 30 5 20 38 17 45 36 11 37 46 25 5 49 50 28 5 0 19 9 40 3 8 40 13 23 23 15 32 50 44 14 3 23 35 42 14 3 1 25 41 21 50
20 19 23 22 50 23 16 8 38 19 41 27 32 14 50 21 20 23 14 34 1 11 43 17 26 47 18 25 11 14 50 5 7 22 28 6 46 44 14 33 37 30 34 18 18 34 13 38 31 1 46 32 12 13 23 12 34 42 38 19 5 37 24 12 33 26 44 2 19 7 9 5 11 44 48 29 1 35 41 6 36 37 13 23 24 36 35 7 1 47 26 31 7 24 44 41 0 11 17 44
43 27 24 4 45 21 33 46 6 24 1 16 35 39 39 8 25 24 40 26 20 40 7 28 13 25 43 13 36 9 7 2 10 31 6 4 26 14 24 6 38 0 23 47 39 36 29 13 9 18 14 4 7 46 6 20 20 23 8 30 32 15 32 17 20 13 21 46 27 46 27 39 46 24 35 34 9 13 22 44 5 10 22 37 5 28 31 50 0 39 29 6 28 35 48 48 48 19 18 49
39 45 37 34 43 46 42 1 33 38 45 38 48 16 49 2 18 30 1 43 18 4 24 47 14 21 18 11 14 10 35 2 4 21 10 21 17 27 23 50 14 42 12 37 33 10 39 0 40 15 18 33 44 42 3 7 12 21 44 1 32 28 3 10 49 14 32 40 41 29 40 29 20 26 15 2 36 29 28 0 18 46 33 11 11 36 44 48 31 37 49 12 14 2 48 37 41 3 27 5
32 41 8 26 16 24 3 26 27 31 26 19 0 8 30 11 18 23 33 50 34 32 11 48 8 33 9 23 36 36 28 17 0 10 44 16 8 47 16 35 1 43 3 26 0 8 37 19 5 19 43 40 25 28 11 33 11 20 30 47 5 7 39 30 18 6 20 0 2 37 36 28 29 13 3 3 46 14 47 1 7 39 41 7 17 1 40 2 22 20 49 1 1 37 32 44 43 26 45 19
12 4 21 15 17 49 19 13 12 15 39 45 29 29 1 20 4 15 22 0 35 20 2 11 32 8 29 49 34 48 43 21 1 13 36 44 12 4 31 49 45 19 43 48 22 44 17 26 9 39 27 18 33 3 3 14 36 33 38 44 30 4 14 6 42 25 50 28 3 30 27 48 23 44 45 45 12 11 45 21 50 21 13 7 49 42 21 34 24 33 2 28 37 16 34 29 41 7 6 45
11 7 16 34 1 36 2 13 21 48 8 46 43 46 2 42 37 23 50 35 31 1 13 17 43 21 20 7 29 1 26 14 8 43 49 34 28 0 21 49 22 29 18 15 25 20 6 36 18 30 21 49 32 8 40 24 29 35 5 32 36 32 47 18 24 19 2 26 44 23 49 16 27 17 31 26 37 11 11 4 41 6 27 47 14 17 45 44 26 0 50 11 32 20 29 30 39 5 5 33
3 28 49 30 45 29 30 6 14 41 35 4 22 37 26 36 28 20 3 3 45 3 14 26 23 17 5 37 23 35 19 26 13 42 30 32 45 9 12 8 24 22 37 46 8 12 32 36 7 9 13 1 12 27 2 10 18 32 47 15 17 15 41 4 31 45 10 25 28 48 33 2 19 19 22 1 6 28 11 13 38 24 14 50 25 41 34 17 23 30 33 14 19 48 18 50 43 2 24 20
24 31 47 17 0 19 18 6 47 3 44 8 1 32 33 26 23 16 44 46 21 0 9 14 48 1 39 40 28 12 35 2 18 5 19 43 24 12 23 46 15 16 28 17 48 10 17 20 27 35 40 22 35 23 36 33 24 24 47 27 11 5 29 29 11 22 21 9 34 44 29 50 9 7 41 31 17 7 26 18 43 40 40 27 13 26 34 11 24 5 38 35 10 41 13 46 13 8 30 47
1 8 46 35 40 10 41 32 18 16 50 10 5 14 11 43 40 20 4 13 25 42 23 9 7 36 5 20 45 9 16 20 17 37 30 7 47 20 13 14 10 12 49 40 26 35 7 40 4 11 28 3 27 0 12 34 10 42 3 29 0 45 24 43 31 3 24 27 48 37 16 32 49 39 46 50 23 2 13 1 13 41 4 15 15 42 49 26 33 27 4 8 21 2 0 26 5 24 27 27
35 43 8 7 32 4 6 29 6 45 31 45 35 9 9 25 0 32 0 34 33 29 16 3 32 41 29 11 14 6 39 23 23 21 30 29 25 11 33 6 5 13 25 14 22 8 39 23 40 39 31 23 43 21 0 24 11 4 35 50 35 48 22 7 19 1 11 18 37 44 49 42 31 23 6 2 31 45 50 46 8 4 43 0 25 17 24 10 21 33 9 5 5 5 38 24 7 49 16 18
16 15 10 47 12 16 49 18 35 23 38 43 1 30 43 1 47 41 11 43 49 46 48 3 0 9 1 7 7 17 0 23 6 10 19 19 0 43 11 35 40 49 2 41 2 19 16 49 35 28 41 7 23 13 10 23 22 36 5 4 27 5 1 34 40 46 27 40 12 38 49 1 36 25 16 38 45 33 10 3 35 26 10 7 13 45 4 35 30 9 13 6 39 15 14 28 10 41 17 47
2 41 48 12 15 38 24 34 20 35 37 4 35 47 36 48 15 41 6 19 50 20 0 13 9 14 41 44 30 33 40 32 23 37 45 38 24 43 22 19 27 33 48 36 30 34 33 19 24 14 39 48 8 39 10 17 2 1 10 6 34 50 13 31 10 7 18 8 24 14 27 1 48 25 11 1 33 45 20 6 33 33 3 41 21 39 7 49 40 42 4 48 41 17 28 25 49 20 33 23
9 35 49 6 34 9 32 16 28 26 47 35 9 24 25 4 12 6 2 26 48 32 23 38 23 25 37 47 20 45 44 29 29 42 9 37 25 15 27 28 41 23 12 24 47 38 29 9 18 5 9 16 11 33 28 35 32 15 5 1 9 49 30 12 14 13 23 39 28 50 41 44 47 3 17 17 15 20 0 33 26 10 23 11 17 1 20 49 16 25 0 50 23 4 36 37 43 8 0 20
32 41 13 28 18 5 19 7 25 20 15 25 30 38 37 47 13 6 19 3 32 44 2 29 49 38 16 41 20 41 35 1 5 49 3 24 3 23 5 2 17 45 28 21 7 39 42 20 19 10 24 0 4 0 4 27 13 20 17 33 10 26 9 40 24 12 13 1 9 44 29 26 38 6 47 19 19 38 40 38 23 38 13 27 38 17 3 0 37 45 8 21 20 17 10 19 29 49 45 13
16 23 13 28 3 10 48 22 22 11 10 19 49 23 46 10 14 23 11 25 42 19 20 37 10 4 5 39 2 24 26 43 48 40 21 0 24 18 48 20 29 32 40 1 29 9 11 43 33 22 17 49 15 37 35 25 41 14 39 18 39 39 10 10 28 31 35 1 23 32 22 26 13 36 27 42 45 39 34 1 35 0 0 25 11 9 24 2 24 37 20 37 26 4 21 3 36 5 30 33
38 26 9 0 11 10 17 30 23 25 32 8 26 6 7 11 15 31 13 13 18 7 24 44 12 45 21 22 0 25 29 12 0 38 12 36 23 3 16 46 29 48 28 29 28 35 40 43 41 28 31 33 35 4 0 21 24 46 43 24 21 22 36 21 34 22 32 6 0 48 27 29 19 4 7 47 14 21 13 29 49 44 11 34 23 36 29 47 31 22 45 1 18 4 48 26 0 29 7 0
26 34 29 19 38 10 15 26 6 28 4 4 47 40 12 19 25 42 40 6 38 34 32 5 38 29 5 38 32 12 13 32 46 16 0 8 27 40 34 33 18 13 11 14 27 24 7 2 40 47 33 27 4 39 6 16 43 11 28 24 24 41 6 19 7 31 27 8 21 36 41 39 23 26 27 50 24 8 26 13 29 33 40 33 22 20 49 14 32 26 12 5 17 18 49 49 50 0 6 45
10 21 7 33 47 8 6 21 16 33 34 45 40 49 27 11 18 50 50 24 50 12 3 41 4 27 39 28 27 45 22 11 40 29 18 37 37 24 32 2 31 40 21 21 38 22 6 31 46 6 29 46 43 33 36 47 9 25 25 10 44 47 21 34 0 39 45 37 37 26 14 43 15 35 13 28 32 44 33 27 50 11 22 16 18 33 13 1 7 38 11 25 8 6 8 8 19 27 20 31
2 34 23 43 43 36 20 49 3 2 26 28 38 22 44 6 4 6 7 36 18 19 11 1 50 44 9 19 21 3 24 48 37 47 40 4 6 9 2 9 36 2 37 24 25 31 30 29 11 37 40 4 30 0 5 30 18 14 23 13 18 21 11 29 17 0 7 23 35 10 32 45 37 44 18 11 49 22 15 34 9 4 38 13 29 43 17 21 32 14 35 50 35 46 2 1 20 10 49 29
45 5 24 31 49 42 17 21 14 32 4 48 10 43 35 13 35 2 34 16 16 18 40 1 38 43 27 8 27 26 11 46 31 35 26 3 27 17 24 15 23 28 37 33 20 21 20 30 23 4 46 14 47 36 40 9 2 16 42 3 16 2 49 47 38 49 24 39 16 48 3 39 26 14 47 20 35 16 50 33 45 20 47 42 30 36 0 32 26 16 9 43 18 32 13 5 30 38 44 20
35 21 34 35 35 30 30 20 46 29 2 15 49 23 31 28 8 5 34 8 21 17 0 39 49 39 45 3 26 12 23 35 34 6 45 18 36 24 12 6 27 39 46 26 11 26 28 19 31 12 2 26 29 2 14 2 15 33 5 41 46 2 0 29 9 19 21 19 43 34 50 19 22 45 19 34 45 48 27 50 34 29 25 37 6 40 13 21 22 18 37 42 21 11 20 4 30 16 23 47
50 48 40 46 16 34 29 11 31 31 35 39 34 10 50 40 24 13 36 20 31 47 12 26 7 6 30 11 22 28 7 21 50 21 42 15 4 20 0 9 25 36 48 9 20 48 23 44 35 33 13 40 29 25 16 36 32 20 21 28 22 2 24 46 24 15 11 28 9 36 12 35 46 9 18 15 31 15 33 15 49 47 30 27 46 46 38 1 40 8 30 12 36 3 7 9 18 43 11 27
3 23 36 23 7 3 13 12 19 46 2 17 42 32 18 12 27 5 13 41 39 17 27 24 20 9 7 12 26 43 40 29 16 50 27 48 3 40 9 47 35 11 38 1 43 5 13 44 36 0 35 49 18 11 47 38 20 3 25 47 46 39 50 36 38 26 33 41 15 43 11 0 28 49 26 21 29 39 39 14 39 23 12 31 9 8 19 29 36 18 50 5 6 50 42 44 50 49 9 15
15 20 40 44 44 15 39 22 28 27 36 41 0 22 22 34 4 15 12 40 33 37 45 39 36 10 6 35 9 15 24 24 36 13 17 29 2 5 25 30 7 10 46 32 32 17 15 36 6 27 50 13 13 44 1 23 4 7 33 38 48 6 11 7 45 3 36 21 8 35 26 40 45 21 21 0 12 36 10 18 38 9 31 25 27 6 49 5 38 5 43 35 11 29 42 30 32 1 1 14
10 27 4 4 48 25 29 9 11 39 1 49 22 6 23 50 37 46 29 49 0 47 8 37 25 24 16 6 0 17 20 10 44 24 15 15 24 44 49 35 7 50 7 29 30 4 2 41 0 32 40 25 28 48 11 27 46 28 33 46 19 27 6 13 1 46 2 50 13 1 34 20 25 15 24 5 44 0 20 18 6 9 44 34 31 29 35 27 6 17 22 0 45 2 38 20 48 40 19 11
41 27 5 16 42 3 46 9 4 15 28 10 50 21 19 4 50 3 5 31 21 2 31 40 4 18 9 27 32 2 12 48 29 17 38 45 46 33 3 50 22 31 9 46 1 2 25 26 6 30 6 1 32 11 41 37 3 24 38 35 26 50 32 29 41 19 23 36 26 0 35 23 32 19 43 7 21 17 7 1 48 38 2 29 49 17 40 1 15 1 11 41 0 17 44 42 11 16 27 11
42 37 8 23 30 1 4 0 43 12 27 40 50 29 44 23 21 7 49 36 9 34 1 34 1 45 50 37 36 1 22 27 38 31 24 17 6 2 42 49 39 18 39 13 22 6 36 17 38 34 2 47 18 28 5 44 48 4 4 33 5 26 34 17 6 32 34 12 34 0 36 23 43 49 36 14 4 46 5 42 29 8 13 21 10 18 39 7 47 43 40 2 44 48 19 50 29 28 37 13
2 47 10 45 45 20 34 49 15 39 14 18 21 27 14 6 19 2 13 16 20 28 43 13 25 11 37 29 13 23 42 40 44 26 35 38 46 43 36 35 5 0 2 1 1 41 7 21 44 20 11 13 22 3 0 48 39 37 26 27 35 42 16 28 42 25 16 11 42 26 46 48 0 22 49 2 13 30 48 31 24 33 18 47 36 18 18 49 4 18 25 39 34 16 17 25 15 7 36 7
33 5 4 34 1 27 10 14 31 7 45 4 14 12 0 24 4 43 22 9 10 22 22 44 12 13 43 27 20 2 34 28 7 12 11 9 13 46 48 44 27 17 49 41 3 23 14 8 16 10 17 0 32 13 19 44 27 11 21 21 14 29 49 46 42 34 29 4 29 27 49 5 18 21 20 21 18 34 29 8 45 20 9 0 34 2 19 35 38 14 5 26 43 4 22 8 12 25 13 42
26 36 21 44 31 16 15 49 50 44 32 18 39 41 44 22 17 12 6 4 0 36 31 43 40 27 26 2 1 13 18 28 49 13 21 3 29 36 26 3 4 7 46 43 22 39 39 39 25 19 44 25 4 49 43 19 25 18 46 0 31 38 28 3 0 24 31 30 9 6 33 38 14 2 4 36 42 17 50 41 10 17 41 40 15 33 33 14 25 28 14 5 15 43 33 40 16 13 19 50
19 26 12 7 29 41 18 45 8 17 9 18 34 50 7 23 32 40 37 31 42 25 36 31 17 43 21 7 5 14 32 50 15 18 6 44 8 49 12 16 15 21 9 23 21 41 20 27 5 31 8 47 6 18 2 48 36 23 30 41 37 36 14 1 3 46 19 11 44 5 2 34 1 11 31 47 1 1 23 6 6 5 28 12 49 30 35 34 27 14 49 38 24 13 14 27 33 33 12 26
13 14 34 14 25 15 10 1 41 7 32 47 13 34 34 36 13 18 19 14 6 42 2 30 29 16 6 11 23 18 12 36 7 46 50 32 10 9 7 0 17 14 22 4 48 5 40 36 23 33 50 3 24 1 33 28 17 13 39 41 5 0 0 12 21 0 19 31 34 26 6 25 14 2 29 12 7 43 48 4 50 47 7 49 23 40 26 14 27 14 4 32 40 30 45 10 30 13 15 38
13 46 13 28 48 16 14 29 9 11 33 33 32 40 31 4 3 6 19 30 46 48 12 9 27 31 44 31 18 8 19 5 29 32 7 26 48 21 5 31 6 12 39 39 2 19 17 30 0 10 35 20 8 47 29 9 1 22 41 44 4 34 49 33 15 31 34 37 1 39 43 8 25 31 21 1 24 12 32 24 23 16 44 31 37 47 14 38 18 4 5 48 38 3 30 27 34 13 39 10
26 31 43 1 36 38 2 9 50 8 34 22 24 1 2 35 23 42 47 15 46 1 12 8 5 43 9 13 5 48 48 6 28 40 32 13 27 34 48 27 17 5 49 41 31 26 26 3 17 47 19 37 49 31 19 28 23 29 15 3 26 13 34 29 2 15 16 4 23 13 5 40 18 28 31 50 28 31 2 19 27 46 31 50 27 50 27 24 28 43 1 29 5 35 7 32 50 48 10 23
11 15 37 29 18 17 2 46 22 30 40 24 25 20 23 26 19 25 0 22 17 1 25 47 11 6 2 35 3 13 32 14 2 19 18 45 10 45 41 33 24 4 31 50 24 3 50 17 28 50 39 19 26 38 15 37 44 43 46 48 30 28 11 32 21 3 1 31 49 42 38 22 20 18 46 44 47 46 10 49 19 24 18 45 11 7 5 5 50 26 2 29 28 38 36 49 16 37 29 14
2 17 10 22 9 31 15 5 0 50 4 19 23 47 39 35 3 18 14 28 44 41 6 46 28 42 44 44 2 23 32 4 14 17 26 48 48 15 28 48 15 6 41 12 2 3 21 30 47 35 7 14 25 14 10 28 30 3 46 33 0 28 11 39 45 12 11 16 1 39 38 16 45 2 3 47 31 24 26 27 9 34 15 8 22 25 10 26 3 6 33 28 8 45 42 27 31 2 43 32
41 30 23 35 6 26 5 37 24 5 13 33 13 29 16 9 28 26 36 31 32 43 34 14 11 25 41 42 27 33 49 17 37 21 26 44 21 5 30 45 35 18 2 49 47 18 32 49 18 17 30 25 35 13 39 46 38 30 38 39 12 36 5 50 31 5 17 1 35 47 46 19 14 48 42 35 40 24 34 8 41 38 33 50 0 21 46 12 0 33 0 38 43 30 11 23 9 28 49 44
49 44 12 38 16 29 22 5 2 30 38 17 17 45 17 42 16 12 3 41 19 28 2 36 32 13 33 41 15 31 8 39 49 46 26 14 24 22 45 26 2 6 43 19 1 9 11 17 46 39 32 14 42 35 50 23 22 6 39 12 37 47 0 36 16 0 24 40 22 43 40 24 50 33 44 0 16 29 42 37 17 48 25 33 32 50 6 29 5 19 41 43 40 15 28 6 15 26 20 11
19 10 36 18 17 3 43 7 6 34 44 48 31 19 31 38 18 11 41 23 30 31 40 19 20 42 50 9 18 20 20 37 4 30 29 21 7 21 2 13 29 47 36 34 40 16 21 32 27 11 29 31 16 19 50 10 10 24 19 28 44 14 39 22 18 42 43 0 37 19 38 15 40 23 50 29 39 45 10 40 31 40 20 21 33 45 32 43 18 25 46 36 13 34 7 32 0 24 6 37
43 44 2 33 17 26 36 30 45 21 45 25 35 14 47 17 33 2 9 0 27 29 10 15 38 17 21 38 15 27 24 33 20 0 15 11 26 25 16 21 46 10 20 30 49 16 47 32 43 31 6 20 9 17 9 21 8 30 8 49 6 33 31 0 7 20 37 34 45 2 29 41 37 49 45 9 40 42 15 6 47 22 0 30 13 9 1 46 39 9 44 19 16 49 20 24 18 6 32 13
33 35 28 19 7 22 2 21 38 18 28 8 14 28 39 27 38 14 47 0 48 15 20 39 13 40 37 6 20 18 44 27 27 21 20 34 17 22 30 5 40 7 13 3 35 26 4 47 14 1 48 12 41 17 0 28 31 37 34 25 29 27 1 5 22 21 13 40 43 43 45 7 24 32 10 34 33 15 4 47 41 1 8 5 43 33 33 48 19 42 47 22 18 22 1 41 43 15 30 10
32 49 42 31 4 1 14 37 41 43 34 5 45 16 10 11 50 18 34 43 9 30 15 27 2 16 42 19 5 46 3 12 18 45 17 23 21 5 34 36 48 42 42 42 8 26 28 32 44 11 24 2 41 13 30 17 4 46 37 9 42 40 46 9 9 12 6 30 17 41 15 40 32 31 5 14 7 33 46 0 44 45 3 9 7 7 26 36 2 37 20 18 27 15 2 10 2 8 40 44
23 29 33 30 10 39 44 17 46 14 42 14 33 45 23 14 26 23 0 29 10 20 21 37 9 23 21 36 6 10 30 3 13 37 33 23 50 1 14 46 40 31 9 22 50 6 10 26 29 10 29 39 4 50 50 39 48 20 24 3 4 28 6 18 40 14 15 39 15 4 8 29 35 42 0 34 48 10 34 1 46 12 40 24 37 14 12 34 8 11 11 38 39 42 5 2 5 45 42 45
49 24 23 7 16 48 42 13 8 25 14 28 12 29 26 49 17 39 32 50 24 17 37 37 8 16 40 14 11 5 8 34 29 6 42 45 3 7 33 36 32 21 13 18 24 40 16 15 2 22 15 26 39 26 12 48 43 26 36 28 31 18 11 10 24 2 4 28 34 11 13 16 33 1 34 31 15 25 47 17 47 11 17 36 11 3 7 3 30 43 31 10 35 17 20 9 44 50 11 28
10 24 18 17 25 26 49 14 0 19 5 48 4 22 7 15 0 39 19 30 31 24 14 40 15 35 49 9 8 9 11 43 8 29 35 7 4 7 22 5 26 27 27 30 24 34 45 24 22 38 28 27 37 42 41 26 0 40 35 8 23 46 26 31 24 10 13 3 17 35 8 17 36 9 47 9 43 15 33 39 28 10 40 39 2 30 14 27 44 50 36 42 19 36 47 18 46 9 21 37
44 3 3 30 12 24 13 29 39 47 42 41 31 5 29 7 9 44 35 28 17 45 19 10 30 15 28 50 50 23 36 43 0 13 47 37 37 10 40 50 31 5 41 11 10 19 19 45 37 28 47 3 22 15 14 1 4 16 25 3 14 35 21 14 48 42 26 8 26 15 7 6 21 22 43 5 42 36 24 28 13 20 6 35 9 20 10 39 10 35 42 24 19 37 39 41 29 39 49 4
3 30 36 49 2 28 29 18 13 2 20 0 48 26 9 6 20 19 45 31 28 11 29 21 48 42 36 0 30 8 5 8 38 41 6 14 43 35 6 5 12 1 30 9 1 39 40 22 7 9 27 9 20 30 4 17 22 40 18 1 48 48 9 35 12 41 24 4 50 4 34 11 5 13 45 7 1 9 3 33 18 4 42 38 34 46 29 5 35 21 32 32 43 41 41 4 5 39 8 5
44 42 41 49 4 10 5 5 19 33 12 37 37 3 49 21 23 1 26 32 23 32 38 15 23 29 45 2 17 2 7 35 19 23 34 23 33 13 3 26 47 40 12 33 44 35 3 41 36 4 23 8 36 10 49 33 13 43 10 5 19 17 40 38 14 23 36 21 11 13 47 7 2 33 40 20 17 18 11 3 47 8 36 32 43 8 40 6 0 50 36 45 41 25 32 30 23 17 0 8
4 48 15 7 30 29 27 48 47 12 25 17 20 10 24 13 44 13 44 18 37 3 12 1 2 19 31 50 36 32 7 15 29 22 22 33 1 23 30 22 36 29 40 30 14 13 17 7 0 10 25 11 38 38 12 41 6 44 40 16 50 48 5 28 19 27 35 45 0 15 42 10 18 5 40 32 43 7 39 43 42 39 28 30 0 40 20 31 7 9 47 6 31 27 8 25 3 44 19 28
