P2
# comments
100 100
50
14 35 33 11 1 7 31 22 25 26 31 22 48 10 9 36 43 47 25 9 4 14 37 25 23 30 8 18 49 0 30 37 9 12 48 10 44 2 33 18 29 38 14 0 49 23 10 41 44 35 25 22 23 11 47 46 15 29 14 13 29 18 25 39 30 22 49 48 50 5 40 2 44 3 2 42 0 12 6 18 47 5 40 44 17 11 40 6 40 28 45 19 46 19 32 50 15 4 47 14
10 36 16 3 13 43 45 38 4 25 5 25 31 45 19 22 30 33 28 20 10 47 13 5 15 45 29 5 49 25 19 33 35 10 10 48 2 4 35 32 4 14 31 35 33 24 6 13 6 8 33 41 5 46 20 45 14 49 50 12 48 44 20 32 28 30 29 4 9 38 36 13 1 42 22 35 15 28 48 47 10 4 11 40 50 32 35 13 4 8 50 2 26 44 34 3 24 38 33 33
25 43 20 1 34 42 10 24 44 32 20 3 36 5 44 9 11 2 22 16 35 46 43 11 40 26 39 38 38 21 20 38 39 14 39 22 30 23 46 23 4 40 0 14 20 18 23 31 20 19 47 5 14 13 41 28 14 3 15 1 50 9 39 38 23 1 9 2 24 30 50 28 44 0 16 13 18 39 19 13 7 40 43 47 3 33 49 17 36 14 18 35 48 7 22 21 33 6 48 7
10 48 9 3 22 26 42 40 14 10 27 47 50 19 17 27 1 15 44 12 3 12 21 1 44 44 47 0 24 18 7 34 40 17 11 11 17 27 26 31 11 2 1 11 22 43 12 23 8 6 9 36 43 31 37 10 49 7 10 22 26 18 30 15 9 15 1 26 43 27 31 28 29 33 13 25 25 26 23 7 32 32 18 24 12 4 34 35 37 18 6 12 36 10 1 19 0 2 45 17
29 26 45 33 33 8 7 32 34 30 14 15 12 32 13 49 10 21 34 47 39 14 33 50 50 35 43 50 37 38 16 41 38 35 23 45 43 30 0 0 35 14 40 21 20 2 44 31 48 27 1 11 16 35 35 40 19 27 13 5 14 3 46 26 38 43 45 5 48 46 5 32 34 46 2 4 22 46 35 20 48 36 5 38 45 40 1 13 16 14 44 5 17 39 31 4 6 26 9 3
21 40 35 4 35 11 33 6 31 42 0 2 2 5 14 47 45 15 10 11 29 3 16 46 16 21 25 47 47 8 50 42 48 34 21 32 19 3 13 0 20 13 27 22 19 42 18 13 6 2 49 36 30 14 5 21 36 4 17 6 13 17 23 35 25 44 42 19 21 4 44 15 17 20 37 10 11 30 49 18 32 47 28 12 11 33 7 21 38 24 27 25 15 24 9 15 42 0 34 13
4 27 28 47 21 40 31 33 19 29 0 0 26 28 37 11 35 18 32 22 17 33 21 6 7 31 21 49 31 29 36 10 30 39 31 1 2 11 34 21 41 8 46 16 10 7 27 45 25 33 42 16 40 12 23 47 17 44 20 49 48 30 33 27 18 38 2 45 49 10 15 13 18 36 29 2 43 30 48 42 37 13 8 27 50 31 48 17 49 17 15 46 48 22 48 40 9 50 35 32
10 24 46 2 9 49 5 26 29 27 18 40 14 0 16 13 31 14 30 29 5 19 50 27 41 47 42 24 20 0 6 4 24 1 32 8 50 11 34 2 12 26 43 26 26 33 39 31 21 19 35 27 38 34 3 3 4 45 27 49 45 33 3 44 34 35 1 8 20 9 10 32 10 27 7 36 10 46 17 31 39 26 32 27 9 36 4 13 4 31 11 24 39 39 42 22 48 17 4 17
26 15 49 10 16 30 47 26 0 38 32 39 13 38 40 47 48 44 34 2 50 45 0 38 8 42 34 5 33 39 48 8 28 20 19 44 0 40 45 0 1 0 13 39 38 3 35 36 47 18 12 46 37 12 7 45 28 42 25 10 30 47 43 7 16 36 25 41 50 19 15 0 44 3 39 32 6 48 42 27 15 3 48 27 40 4 46 42 20 20 26 50 41 18 31 32 29 31 47 28
24 12 3 18 15 16 24 46 14 15 47 3 18 44 30 32 23 26 23 43 20 49 17 11 41 22 17 19 2 13 22 27 50 25 19 14 41 43 34 29 7 31 33 50 49 37 5 21 12 28 39 7 0 5 43 41 27 9 35 4 22 6 31 22 5 24 10 46 16 19 50 48 50 32 21 48 18 26 44 5 28 6 12 28 11 29 43 12 38 27 16 34 7 21 30 12 45 41 33 35
9 32 6 33 38 27 4 5 27 22 35 4 28 21 6 39 50 24 26 11 0 16 46 33 38 50 45 6 14 1 16 48 33 22 30 45 24 9 25 25 31 9 30 9 5 10 22 4 34 22 41 9 39 10 42 0 9 10 31 24 37 47 21 19 44 26 39 42 35 13 16 15 22 20 49 1 31 46 6 39 17 21 48 5 31 13 5 14 49 37 12 35 7 34 28 0 34 16 42 18
29 33 7 26 2 31 27 7 26 7 47 43 2 18 49 7 32 3 22 4 14 34 39 22 42 41 22 25 7 39 17 10 21 50 10 48 30 12 5 5 19 1 22 47 44 20 3 50 49 25 3 12 34 16 8 25 7 5 25 14 18 16 49 39 15 9 36 19 21 41 24 14 16 21 10 10 41 14 9 13 13 38 0 47 3 8 47 10 13 21 49 31 11 48 44 27 31 4 46 26
19 45 14 36 15 25 20 30 13 3 44 26 41 44 48 45 26 44 4 40 39 28 45 50 25 13 0 30 17 21 5 36 40 19 46 29 18 40 8 5 44 26 6 34 19 3 2 46 21 32 9 9 9 28 33 8 41 34 38 32 4 17 43 44 10 12 47 29 2 4 34 20 5 40 3 24 17 31 44 38 12 27 21 21 30 4 29 45 12 16 27 16 33 44 34 17 5 30 46 32
8 4 1 13 18 5 12 36 10 30 48 22 7 19 43 37 48 21 5 9 11 32 50 18 50 33 35 5 37 5 37 19 9 39 33 27 18 19 37 28 49 9 50 30 28 16 41 50 37 47 8 22 2 7 40 2 14 24 7 0 29 18 19 12 31 26 14 23 45 0 25 18 9 24 48 11 14 39 10 25 9 43 47 11 50 36 13 13 35 45 38 38 13 7 25 44 7 39 42 2
13 16 20 48 15 42 8 29 30 44 4 13 36 0 25 36 11 12 23 20 7 11 32 20 43 6 38 50 19 3 1 33 20 46 30 35 38 12 13 42 5 42 5 16 17 4 26 28 16 49 22 23 9 3 17 1 35 30 26 3 33 27 36 2 48 40 11 35 2 50 0 32 41 5 48 7 9 23 9 0 47 31 23 30 9 15 6 44 45 32 21 1 33 32 4 30 21 40 14 48
39 40 4 30 45 26 37 29 24 21 29 20 1 26 50 35 41 5 28 9 37 24 11 20 5 40 50 26 29 39 49 18 28 2 48 47 28 8 50 1 29 2 21 5 3 46 40 44 0 43 28 12 16 39 6 21 28 5 21 6 18 19 24 20 46 46 42 24 4 15 50 7 18 46 12 21 41 27 39 15 19 16 27 35 29 33 30 6 13 0 38 5 45 11 0 40 32 42 13 10
31 13 17 49 8 4 44 23 31 7 38 50 48 15 8 27 22 38 7 35 12 45 41 6 31 15 47 12 6 9 22 37 47 13 10 29 17 28 1 48 9 40 21 7 29 29 8 0 41 15 10 3 10 25 9 41 40 5 27 20 40 49 6 10 36 41 40 3 44 15 0 2 4 47 34 7 25 42 8 16 32 43 44 42 17 2 6 6 33 33 26 47 5 6 6 41 22 20 44 15
36 19 42 14 15 0 22 40 16 4 30 48 47 23 39 13 0 45 44 7 27 19 3 6 50 34 48 21 4 41 10 14 9 2 2 49 27 24 13 43 2 17 41 49 41 3 36 15 23 29 47 24 22 50 31 22 7 28 43 36 18 3 50 2 30 2 25 6 0 38 49 3 5 13 26 20 17 37 35 40 40 31 13 12 4 44 8 36 21 0 22 14 28 46 41 32 22 15 38 48
3 11 0 8 49 0 2 15 11 37 29 1 42 17 13 20 10 21 30 6 46 1 45 49 22 35 30 44 50 43 41 27 28 15 9 26 41 11 16 1 22 19 2 38 36 40 7 21 35 38 27 5 13 46 28 35 30 7 29 3 24 44 31 1 9 14 2 24 26 43 25 48 11 2 36 48 16 17 18 26 4 19 31 43 14 33 27 18 40 30 21 39 49 26 14 32 41 16 5 41
8 30 38 45 6 23 42 23 15 34 23 19 2 28 36 41 10 38 8 24 42 3 12 40 4 27 21 19 17 26 9 0 31 47 45 11 45 36 8 9 19 31 2 46 8 13 36 18 0 18 43 42 21 29 32 50 5 27 18 23 28 27 23 33 49 17 44 17 27 27 26 20 7 2 40 41 15 25 33 15 17 50 32 12 29 38 12 34 14 4 31 16 32 28 49 4 45 17 21 46
44 21 40 25 23 29 15 13 28 49 2 45 48 34 7 0 21 44 35 10 48 40 0 3 18 50 7 37 41 2 7 8 23 47 33 21 26 23 34 3 46 36 49 43 45 30 44 40 23 2 50 45 16 0 49 34 24 5 46 39 8 2 21 5 49 3 26 24 0 9 28 46 20 0 39 14 30 6 3 2 33 28 47 23 2 19 7 0 50 27 13 7 29 34 37 27 37 13 26 12
47 3 7 41 28 20 4 7 0 33 34 33 35 4 6 11 24 38 36 23 14 49 4 17 32 41 18 43 28 44 4 25 21 12 15 49 32 45 5 33 1 13 40 10 18 20 21 42 32 6 39 20 4 17 37 10 7 5 2 36 49 32 35 45 18 24 43 50 18 23 6 44 36 21 3 3 15 49 19 48 4 7 17 33 24 4 17 6 34 20 16 6 26 0 0 44 49 18 17 17
41 24 35 26 19 39 30 34 37 23 31 16 31 23 23 29 1 41 9 35 35 25 15 10 50 16 3 49 8 45 40 49 43 49 24 11 37 28 46 49 1 0 14 6 23 11 9 49 1 19 7 36 18 23 20 43 13 48 15 21 43 29 19 35 27 17 47 14 46 16 37 21 41 25 1 39 36 10 37 12 3 45 48 47 42 43 39 4 40 28 50 6 6 18 42 33 9 12 21 29
2 7 24 43 32 25 31 43 10 43 4 13 11 26 34 2 18 47 6 8 24 5 14 30 48 30 13 6 16 8 10 18 16 34 36 22 9 41 14 19 33 43 6 44 19 15 46 37 11 26 19 36 5 8 40 2 12 2 34 29 11 44 21 1 1 6 48 10 48 37 3 30 29 35 49 48 24 44 9 35 45 2 45 50 35 35 2 48 11 10 26 47 28 21 48 29 28 46 14 25
32 42 29 35 0 27 33 24 46 16 34 40 18 28 39 3 12 15 25 24 50 25 45 27 46 43 31 23 12 19 22 18 35 1 2 36 2 9 34 48 25 17 11 18 20 0 46 6 40 20 4 40 19 50 41 14 16 46 12 28 14 34 20 50 9 22 9 12 6 17 34 5 9 46 48 29 20 43 35 9 37 14 23 30 13 39 45 29 34 6 31 49 14 0 22 24 47 5 10 27
22 44 33 31 13 30 34 33 48 44 17 8 7 14 39 45 2 33 23 37 13 28 9 1 2 5 50 23 10 9 0 32 28 33 38 41 37 21 49 8 39 40 17 20 3 5 14 31 12 11 42 50 39 0 0 15 30 25 39 40 34 39 21 36 46 33 1 32 29 24 41 17 13 7 38 41 37 26 21 23 38 37 22 0 11 47 16 41 21 4 30 30 43 26 40 12 33 41 44 11
14 8 3 1 40 41 43 26 16 38 23 28 50 45 29 10 16 45 1 11 23 5 15 40 5 5 1 39 20 45 50 35 28 2 10 17 17 27 18 8 40 41 36 39 10 39 49 0 7 24 11 30 4 27 19 9 32 20 48 1 40 22 10 17 49 46 34 16 22 26 49 11 42 8 50 1 48 23 1 4 21 37 9 25 13 28 9 19 49 6 46 12 2 30 29 1 25 37 42 48
38 40 33 29 48 7 30 19 4 5 49 25 42 7 25 30 35 34 23 7 14 18 19 17 49 22 18 48 34 9 19 21 23 2 50 45 34 3 14 38 33 12 37 49 44 11 2 28 19 26 10 34 44 3 0 16 0 43 14 34 26 33 29 49 9 2 17 43 5 31 30 12 17 42 35 10 2 38 13 22 13 23 30 31 0 4 48 0 21 36 34 47 18 12 19 28 14 36 45 44
42 50 30 8 41 15 44 43 2 6 39 40 3 18 20 3 22 42 4 17 27 12 13 20 50 6 22 13 17 16 32 8 15 11 41 5 0 34 23 2 14 11 16 17 4 11 46 0 2 50 18 4 11 5 49 10 12 20 49 29 10 4 11 26 40 26 5 41 35 28 17 49 14 34 41 43 45 36 43 21 9 35 50 45 15 48 30 27 17 2 30 28 6 15 28 20 41 33 35 25
36 2 49 24 10 13 16 29 23 33 24 6 43 24 0 7 21 4 8 13 6 12 15 37 27 43 7 42 50 42 42 9 18 40 33 2 27 23 31 50 31 5 30 48 29 30 4 24 35 37 37 15 49 1 2 25 18 34 41 18 50 32 1 43 46 9 45 22 6 0 46 11 5 25 8 8 30 37 32 39 23 44 3 21 45 30 20 38 38 11 30 12 43 31 4 39 40 23 35 21
23 5 32 2 30 41 10 9 27 17 22 0 10 26 46 29 30 16 16 18 27 46 4 44 1 33 6 15 5 16 36 3 21 18 5 0 8 16 35 9 33 6 34 17 6 30 46 11 20 37 29 21 32 7 14 33 40 46 49 45 11 34 48 32 26 28 6 8 44 15 18 0 22 1 42 2 5 37 13 25 23 16 20 30 23 9 37 12 4 9 32 15 44 3 21 44 31 27 2 49
43 20 49 39 46 40 15 26 1 29 25 49 45 46 28 43 4 40 29 8 49 10 48 16 39 18 10 19 19 12 18 36 6 41 24 26 5 40 1 31 43 27 29 11 47 32 3 0 21 7 33 19 17 30 36 30 22 46 50 15 32 42 1 12 32 50 38 11 13 14 42 5 41 21 42 37 2 19 11 23 26 44 16 18 48 1 48 44 21 47 8 2 12 34 14 45 34 27 5 21
41 48 1 31 43 43 42 45 11 27 42 38 20 7 30 17 34 27 35 4 49 43 32 10 27 20 29 35 47 9 5 37 6 31 42 49 23 7 17 35 34 33 47 3 14 26 45 48 27 29 27 25 47 8 10 48 28 39 6 50 48 36 36 28 17 2 0 40 9 17 49 44 24 45 21 39 45 41 36 22 19 12 21 40 45 31 37 48 45 43 47 42 29 32 45 46 34 45 35 18
37 8 36 10 2 6 49 48 21 9 44 15 21 14 4 41 46 42 38 40 8 34 5 11 40 50 6 49 45 16 16 31 24 1 15 0 32 14 48 3 48 15 18 43 30 22 33 25 38 20 39 21 3 44 32 44 18 13 42 37 29 32 17 27 7 6 27 39 45 50 16 42 14 34 35 44 31 17 43 43 38 31 13 15 50 46 33 17 8 49 28 11 30 19 38 37 25 39 0 20
38 16 11 27 25 46 20 5 38 38 22 50 43 36 14 42 5 22 33 38 20 10 23 25 29 35 36 29 23 36 49 36 27 34 12 1 4 6 31 42 44 2 41 37 38 29 2 17 0 10 29 46 20 1 20 24 36 5 2 34 16 25 19 43 8 5 44 37 11 24 28 30 26 43 16 39 22 43 30 47 2 9 42 48 35 11 21 46 17 48 29 33 47 22 50 29 27 43 16 38
41 44 17 41 11 7 3 33 0 34 3 2 17 46 50 1 6 45 47 48 16 50 4 37 21 3 16 48 20 6 10 35 50 1 26 35 9 29 42 34 12 46 36 3 41 10 5 21 29 26 44 20 26 48 6 21 26 47 19 20 2 29 5 27 4 5 11 13 34 3 47 21 49 7 24 13 42 3 34 45 4 1 14 4 50 46 25 50 42 44 44 19 47 49 46 26 3 6 39 12
34 10 33 6 42 31 44 33 9 2 27 13 3 16 17 2 11 16 26 27 35 20 46 5 43 15 31 21 47 20 33 30 4 40 11 46 45 4 2 3 6 3 41 10 44 32 37 29 49 38 6 33 7 26 38 24 42 44 45 38 38 27 42 42 41 2 11 36 32 13 13 38 41 4 22 35 36 9 13 34 47 44 41 28 45 3 1 36 47 21 48 34 22 39 50 13 16 10 49 48
48 11 9 12 40 6 47 26 15 35 34 36 2 50 38 47 2 13 6 23 34 3 31 6 17 4 19 7 39 42 29 36 27 38 22 42 44 44 17 33 28 25 43 30 24 4 1 0 18 7 23 1 11 28 32 2 32 25 9 20 41 12 30 18 24 27 34 43 20 0 25 48 50 43 1 24 47 2 24 14 35 22 41 46 24 22 22 31 48 31 0 38 17 5 30 41 32 13 33 26
38 33 48 38 25 49 36 46 26 34 35 10 30 25 30 4 21 1 35 43 6 9 5 23 39 35 13 20 23 47 20 35 29 17 47 28 41 32 23 16 16 7 0 46 6 30 24 28 5 8 45 36 43 50 8 31 9 46 26 32 16 46 41 19 13 38 21 3 19 45 44 9 26 44 30 7 48 3 9 27 37 3 12 29 3 45 9 12 14 35 18 5 5 33 24 18 20 46 46 14
14 39 23 14 6 2 21 3 31 30 4 17 34 41 20 11 35 29 48 23 39 40 28 44 22 2 36 17 22 31 31 10 19 28 24 25 5 46 2 36 50 31 27 7 21 47 18 30 25 40 2 38 29 5 31 26 7 16 43 3 21 48 13 40 25 11 39 30 6 15 40 6 46 16 38 41 12 6 20 12 20 48 24 24 2 30 24 34 20 16 11 42 38 24 5 12 35 45 17 16
34 6 47 4 48 34 19 34 14 40 46 9 11 45 33 38 24 6 21 44 47 6 35 34 4 41 46 13 9 37 29 17 44 50 46 41 34 15 24 22 29 45 31 40 39 38 27 37 44 22 30 40 2 40 48 6 30 18 19 13 4 49 4 48 22 0 12 5 15 37 2 44 5 7 7 18 46 8 4 39 4 34 3 6 48 0 12 27 18 31 14 23 3 19 45 26 44 7 5 8
18 7 26 48 15 33 15 35 15 44 48 19 1 0 25 50 26 37 0 18 42 15 15 46 8 10 21 26 42 26 34 34 8 34 31 48 41 20 32 5 13 29 24 14 4 23 13 30 34 14 48 25 3 13 20 36 48 15 11 13 16 19 47 24 2 1 21 17 21 27 22 8 30 20 47 34 17 35 13 0 23 36 50 26 23 45 36 20 9 47 33 25 40 3 23 16 4 18 33 50
19 29 7 50 23 28 33 40 12 21 40 35 6 39 35 3 33 20 23 17 41 30 16 30 33 40 46 11 32 2 10 1 5 42 0 28 19 33 17 32 28 6 41 8 20 26 11 27 46 8 44 37 38 10 41 45 24 11 5 5 13 40 6 19 5 6 21 25 14 39 31 16 19 21 25 39 47 10 16 17 19 34 3 31 18 18 0 42 29 5 22 17 20 28 10 25 9 31 24 48
19 4 13 39 0 12 1 21 23 42 38 16 26 15 47 18 34 47 35 37 27 6 3 47 8 13 46 42 45 20 39 13 49 27 26 49 13 28 45 10 19 32 26 19 22 23 38 30 44 22 16 20 2 20 41 10 33 11 2 1 31 15 15 3 16 15 27 30 43 21 40 37 27 41 5 49 13 17 2 31 13 19 26 15 13 41 0 46 1 2 22 6 42 37 10 33 26 11 37 19
32 0 5 8 41 35 32 28 27 8 9 40 27 35 5 40 25 5 10 1 32 32 7 48 43 42 30 18 2 16 11 8 17 41 17 32 26 23 10 27 31 44 16 33 2 46 47 27 25 31 2 31 12 35 29 29 26 33 22 3 50 33 11 41 49 2 47 49 25 6 25 31 50 41 38 1 37 34 3 36 15 30 17 1 14 46 31 41 28 27 44 1 34 29 16 32 32 13 30 31
44 4 11 18 20 23 44 31 7 21 16 47 1 33 48 40 2 2 30 5 3 48 6 38 27 48 19 33 35 50 13 2 28 50 45 48 22 39 28 3 34 19 50 9 1 22 50 4 49 29 9 2 1 40 40 2 11 33 35 20 32 22 23 10 21 17 32 18 30 35 21 14 3 46 23 4 42 22 33 40 26 16 16 1 31 5 28 42 39 37 12 45 8 9 29 4 26 36 22 6
20 17 45 23 12 42 1 3 14 35 18 14 25 34 40 5 14 17 22 27 3 8 21 36 17 25 40 17 10 36 48 30 3 42 2 40 8 28 44 22 12 36 10 38 19 50 17 33 41 39 34 44 21 30 29 38 4 44 30 14 29 27 18 6 44 45 47 1 22 14 48 35 50 32 47 18 5 38 26 46 1 34 39 22 13 42 35 17 9 14 5 13 15 23 19 33 17 15 8 40
29 30 49 28 11 19 21 16 6 21 36 7 4 24 4 18 41 39 9 24 2 15 37 42 38 6 25 30 21 7 44 25 38 42 27 23 35 48 40 15 18 50 48 48 49 1 15 39 40 24 12 16 13 50 7 1 30 6 5 0 14 49 50 26 14 27 49 49 24 12 38 17 12 35 39 10 36 28 23 25 26 35 15 40 8 48 15 12 28 20 38 16 43 37 42 6 13 41 29 12
27 16 3 39 1 42 23 37 44 46 37 19 5 26 33 38 23 48 0 26 42 38 42 34 24 34 40 12 49 18 24 50 9 1 39 10 17 11 21 10 32 7 3 37 8 37 24 5 34 24 31 26 11 23 34 10 31 24 22 3 16 20 2 25 21 15 9 12 1 31 22 33 12 50 19 20 36 17 26 45 42 6 45 27 3 28 11 34 26 33 37 43 2 14 42 48 29 1 9 4
32 5 37 44 5 30 39 41 48 14 35 13 45 3 14 49 32 26 32 7 33 44 24 36 7 16 7 10 42 17 15 23 47 26 41 1 6 29 17 28 17 26 15 12 30 29 10 36 29 16 43 12 9 42 22 41 32 29 26 23 20 15 46 42 41 10 43 21 40 34 49 6 10 38 18 14 42 2 50 20 19 16 6 2 7 28 18 13 32 44 36 26 8 5 17 49 16 35 20 5
18 43 36 2 31 29 16 22 31 15 16 24 6 23 1 38 0 19 1 6 12 37 33 20 43 24 43 8 8 37 38 1 4 23 3 9 26 20 31 32 9 21 5 40 44 6 28 19 25 29 25 11 15 32 5 32 6 49 40 39 9 1 40 13 50 18 22 25 12 27 6 21 49 37 11 16 17 13 35 17 42 35 28 31 16 8 13 47 31 27 36 40 29 50 28 28 17 24 27 29
1 8 25 24 45 10 40 36 23 50 2 14 8 5 45 49 13 32 46 44 9 5 7 38 4 35 40 47 9 16 25 35 49 50 33 43 34 47 3 6 46 30 45 3 35 14 27 22 46 22 40 4 1 22 16 30 31 30 26 14 21 26 49 19 50 5 37 34 2 40 14 48 19 9 26 29 23 2 25 43 49 40 48 24 11 38 3 16 18 4 31 39 30 3 7 3 9 18 37 11
7 1 33 1 35 33 4 32 9 29 24 7 43 46 31 28 34 9 45 26 13 25 39 17 2 20 20 36 39 7 47 20 33 4 21 42 37 25 23 21 29 47 2 21 43 34 50 0 17 18 0 30 17 39 47 19 8 16 5 21 48 26 42 4 30 37 46 42 12 18 37 15 40 39 36 6 47 9 31 13 27 31 43 44 19 13 38 1 30 43 48 1 43 39 6 23 25 26 39 11
19 50 26 33 38 37 39 35 46 19 48 48 50 15 15 43 28 2 18 32 19 15 34 12 28 14 9 3 14 22 39 33 21 15 15 8 26 28 43 46 21 15 43 45 30 33 37 7 35 30 14 4 19 48 41 48 36 50 25 24 21 13 7 42 2 47 24 2 50 42 49 20 6 15 15 36 48 26 17 7 30 31 36 50 2 26 47 12 25 46 37 20 33 18 36 36 14 9 38 38
0 10 33 6 26 48 16 23 48 34 4 2 39 40 1 42 15 22 3 14 17 40 34 50 7 44 9 47 3 22 8 28 32 41 35 32 12 25 30 35 8 34 37 48 24 38 13 13 34 41 2 0 5 10 24 12 4 8 33 7 30 16 35 36 6 44 18 19 19 48 28 1 5 14 23 29 26 36 17 9 1 19 34 6 29 7 43 33 40 26 14 19 16 24 30 22 17 48 15 36
19 43 12 24 31 35 28 6 46 19 15 47 38 49 2 41 31 45 49 20 45 12 14 10 36 44 7 3 41 47 13 34 40 50 32 20 35 9 1 30 2 16 0 40 15 2 5 20 21 3 40 16 40 3 0 26 47 7 3 11 4 41 19 18 41 1 12 50 35 13 29 38 4 3 1 44 5 6 13 26 34 2 16 24 31 17 24 1 49 1 13 27 42 32 19 6 7 32 5 43
19 8 30 23 11 31 16 41 12 3 42 46 31 7 19 11 49 43 12 48 44 50 24 10 6 18 41 13 50 21 5 43 29 9 16 15 15 6 5 27 10 47 22 41 29 16 26 27 8 12 49 27 12 48 11 18 15 1 5 14 22 36 31 26 45 21 15 9 2 20 10 12 42 33 27 45 49 27 21 31 39 20 32 25 17 43 43 6 19 23 45 15 8 25 15 27 47 30 11 49
25 21 35 41 28 36 35 26 12 5 32 25 50 13 0 41 31 17 47 50 14 41 39 22 16 4 24 37 8 9 9 33 30 44 23 33 3 7 8 40 38 40 14 37 28 39 2 8 6 49 32 20 14 45 17 4 23 15 41 32 24 24 39 28 17 12 10 45 44 44 34 31 7 22 43 35 36 45 17 16 17 23 10 31 18 27 9 41 16 50 22 14 48 11 43 39 48 27 33 41
45 41 47 27 13 13 36 49 32 3 14 49 26 49 4 44 0 13 35 16 38 31 31 35 16 48 24 13 49 31 29 44 22 50 45 9 12 30 32 18 33 20 16 34 18 45 27 18 33 36 35 45 42 40 3 7 11 1 46 9 33 49 27 4 48 21 38 34 1 19 1 8 39 42 42 6 11 44 25 44 3 34 38 45 23 15 27 8 17 47 17 50 45 19 28 16 14 15 50 40
8 0 49 47 16 14 27 27 32 1 45 36 9 6 4 6 22 5 14 39 1 6 12 20 25 14 36 39 3 35 29 11 9 1 32 26 15 8 27 48 35 22 7 44 28 36 25 50 42 39 12 17 45 24 38 44 38 23 33 15 33 36 26 42 11 32 42 26 41 19 48 50 41 29 17 43 15 42 43 6 31 29 48 50 3 35 44 15 8 0 31 15 10 31 6 21 13 23 21 28
42 44 27 6 22 44 49 11 36 15 42 41 45 40 14 22 24 32 11 6 6 16 21 41 48 2 11 35 25 7 12 41 25 13 47 21 6 19 33 16 35 24 31 3 38 20 25 37 1 36 43 33 2 39 23 24 15 9 33 14 16 19 4 15 32 25 36 12 44 18 29 2 17 34 5 29 3 4 15 5 41 8 38 17 21 10 15 10 44 48 24 9 16 2 49 48 27 35 9 45
27 12 48 18 47 27 48 50 32 12 29 47 45 16 13 40 1 28 50 45 25 48 29 41 50 27 12 0 36 21 46 13 8 17 5 4 44 2 3 50 40 7 46 34 23 8 24 49 10 48 18 9 46 21 50 45 48 36 46 8 32 15 46 40 32 0 44 50 28 21 50 17 28 45 0 26 28 49 24 38 47 16 48 42 37 21 10 9 7 5 17 39 20 12 28 26 37 46 26 14
16 25 31 19 19 6 45 47 29 43 35 25 9 6 41 46 27 1 4 8 6 46 21 1 32 23 27 19 18 2 33 9 27 39 28 21 19 47 17 48 39 26 48 22 6 38 43 34 39 21 16 20 17 38 21 49 10 22 17 3 25 25 12 26 38 14 21 6 10 13 28 23 39 25 46 20 13 38 28 26 33 44 46 50 31 41 23 16 13 40 19 12 39 5 12 26 19 34 6 29
47 35 26 9 9 21 29 47 33 6 23 16 25 18 40 5 9 12 46 47 27 14 8 40 19 20 16 12 28 47 41 24 31 42 34 15 12 37 11 20 44 34 10 43 2 50 22 36 37 18 32 13 6 40 2 0 34 43 12 12 14 28 10 45 19 44 9 5 5 21 50 23 4 9 15 31 34 37 16 20 4 22 7 11 36 34 36 20 1 48 6 15 25 16 9 44 35 44 24 40
39 23 12 17 33 1 49 41 38 39 35 17 11 42 2 47 50 38 41 0 35 21 15 35 38 50 2 47 17 26 10 5 50 22 22 6 48 45 21 35 8 5 1 19 47 3 40 46 41 5 21 0 0 10 35 38 34 37 8 0 38 18 30 37 14 27 17 11 21 38 21 29 43 22 22 13 0 37 33 15 16 28 15 16 39 24 29 22 36 37 48 23 30 27 34 44 3 0 30 50
12 0 2 29 47 25 16 47 36 23 37 1 1 1 17 40 0 46 11 36 33 33 8 12 10 42 30 38 16 9 37 28 9 40 31 31 39 21 27 24 44 13 25 45 40 42 34 40 38 20 25 45 2 7 31 37 49 10 25 39 20 36 16 3 25 21 34 38 42 36 11 35 23 36 30 12 2 38 26 14 7 25 8 35 6 13 21 4 23 46 43 17 32 33 46 31 28 3 19 44
39 4 29 37 15 33 23 17 45 50 5 2 49 38 11 5 0 32 34 23 2 1 15 8 8 10 13 37 13 6 30 27 11 33 38 26 40 10 17 35 34 47 11 33 34 22 12 34 3 20 31 30 21 20 38 30 30 1 41 18 32 20 19 43 28 6 43 17 16 34 26 0 30 37 7 13 8 44 21 37 13 27 16 9 47 29 13 27 4 3 19 36 48 38 3 25 18 46 17 34
30 43 8 9 30 40 48 12 33 18 49 21 19 40 4 16 18 17 17 47 45 36 32 42 48 9 42 15 5 33 23 9 25 6 18 29 46 40 16 3 33 14 49 1 28 2 42 20 44 8 16 38 18 23 29 40 32 45 4 11 27 2 20 27 8 13 30 28 2 46 31 9 35 29 11 12 5 2 33 49 36 23 36 3 46 40 44 2 8 22 13 36 49 34 37 6 47 41 35 23
37 40 33 46 44 18 7 23 45 14 22 30 12 32 8 7 46 26 34 4 22 48 14 21 5 25 1 1 15 10 49 26 0 31 21 18 23 3 41 18 17 37 22 3 19 4 11 14 4 19 43 27 16 6 22 46 31 23 21 47 8 20 22 8 25 18 0 49 21 41 41 12 28 37 16 21 16 1 9 20 20 2 21 11 8 43 6 14 41 28 35 49 22 31 31 47 49 31 19 19
46 34 32 48 46 48 43 11 23 2 5 43 29 1 3 11 18 35 25 8 12 9 31 34 15 36 4 13 41 49 33 37 32 39 8 1 10 1 37 33 28 17 25 6 18 3 17 36 38 17 19 24 0 24 32 15 10 10 29 0 8 36 11 15 49 20 16 8 46 3 41 23 20 40 3 12 17 45 22 4 36 41 2 37 40 34 26 24 19 29 24 27 14 10 42 37 4 33 45 50
10 9 47 30 50 24 16 41 18 38 46 4 3 22 15 43 31 15 16 50 45 14 26 33 24 43 20 2 25 14 1 35 49 22 39 22 46 4 12 39 16 32 17 19 4 6 36 35 21 26 8 15 15 34 49 39 0 43 42 25 31 17 34 29 14 47 0 9 0 13 22 42 19 39 10 23 45 21 32 41 47 40 5 11 49 28 25 49 20 41 49 1 32 6 30 46 3 5 30 28
43 1 19 11 15 4 9 34 25 15 24 46 30 4 32 28 32 31 0 27 46 23 28 27 30 32 48 33 11 27 35 3 2 4 40 17 8 49 26 7 13 50 27 17 28 33 45 10 13 20 37 8 43 39 10 47 20 7 3 32 8 39 9 10 17 49 2 25 21 28 6 9 1 7 26 30 41 46 40 28 15 0 11 32 13 46 3 33 2 6 39 10 19 23 45 36 46 47 35 17
24 15 26 0 23 26 30 38 21 44 15 10 18 0 43 31 46 20 13 22 0 27 6 20 24 1 5 19 48 15 36 47 30 36 47 2 37 0 40 7 44 30 18 11 30 35 42 0 29 29 22 29 30 29 49 3 30 29 48 1 44 7 22 23 18 43 0 4 43 14 11 10 18 3 46 23 12 11 23 41 41 45 20 45 48 43 23 1 21 20 3 39 1 50 37 19 43 37 23 9
25 9 45 44 12 40 16 50 1 39 14 16 7 34 35 5 1 7 6 47 1 34 36 3 34 47 22 0 33 20 34 32 29 28 25 15 18 15 39 44 28 3 9 10 11 44 15 12 26 46 9 1 4 19 4 12 15 1 12 22 46 20 28 24 49 28 13 41 43 2 8 21 30 17 31 41 35 20 28 35 40 11 37 44 30 15 5 19 41 42 15 36 12 43 34 35 20 48 50 38
24 7 33 3 49 13 44 7 7 46 43 21 6 29 15 36 18 45 29 9 37 18 45 23 11 29 32 5 0 5 43 24 12 25 1 35 12 19 42 44 15 8 15 21 37 30 32 30 49 35 39 35 3 33 32 39 36 13 44 36 43 11 34 4 36 35 13 23 29 5 16 44 38 5 39 50 9 45 29 8 30 17 17 33 50 50 21 36 37 39 46 30 50 30 8 10 39 22 33 17
1 23 35 39 29 24 38 12 43 16 20 22 7 38 29 7 11 50 17 48 13 12 1 12 16 10 22 5 6 29 47 7 27 32 20 5 30 33 42 22 23 12 45 31 50 48 12 35 48 29 32 10 15 8 47 32 18 44 37 49 22 33 30 49 39 50 28 18 6 20 15 30 6 34 10 30 31 22 14 2 25 20 37 40 28 34 21 20 27 32 18 23 40 48 47 28 22 49 21 28
43 10 32 49 44 16 28 49 12 42 1 37 12 38 1 14 46 22 35 47 29 2 45 43 25 41 20 47 13 15 49 6 50 5 4 43 21 7 42 34 23 17 45 9 29 46 24 25 43 8 46 21 35 40 13 9 4 7 30 18 48 3 24 47 8 2 14 3 9 30 37 33 47 32 42 25 1 15 24 44 48 20 39 33 34 26 16 39 8 21 6 5 24 4 26 6 6 40 9 16
19 21 23 40 27 14 40 28 4 38 47 26 32 35 8 16 36 50 4 44 20 35 49 18 39 49 49 45 13 32 35 32 2 7 47 3 47 10 6 0 48 2 0 30 11 34 46 47 33 24 40 27 8 12 19 47 36 17 41 49 23 26 30 26 33 0 3 3 10 9 28 8 36 29 38 48 12 7 18 45 31 33 46 39 45 14 35 30 5 50 28 28 25 33 28 33 7 6 36 43
15 14 0 1 17 12 23 29 44 41 48 24 23 43 37 43 31 46 47 36 45 50 38 45 6 41 27 13 47 37 5 36 25 30 37 42 16 34 20 9 50 42 7 47 34 44 13 14 39 10 24 34 9 37 2 40 27 3 2 48 40 33 33 40 37 45 5 3 28 0 37 1 42 45 49 26 12 11 14 1 21 13 9 4 24 11 18 25 14 21 22 28 28 4 42 14 49 48 42 1
48 29 2 39 23 25 39 35 37 28 10 32 15 19 11 39 4 29 13 43 24 9 46 1 13 37 41 37 34 32 12 31 10 39 20 7 14 33 17 25 10 27 31 25 21 42 38 50 46 0 43 19 9 38 46 48 49 10 8 33 16 45 13 27 33 7 8 21 15 25 46 25 2 27 25 48 43 12 47 12 38 13 32 21 25 1 43 24 36 0 6 1 45 44 28 2 26 11 23 41
36 44 40 12 45 14 9 11 1 31 24 39 44 30 9 44 31 27 17 16 27 48 17 47 41 20 23 41 31 46 31 41 13 21 3 7 9 37 44 10 17 17 49 36 47 33 29 1 9 20 17 10 17 8 31 32 2 3 23 7 24 3 49 37 49 26 19 8 37 12 43 29 29 42 14 50 49 17 0 32 37 42 16 28 50 48 9 27 25 32 34 49 10 6 36 33 32 4 15 19
41 8 48 44 24 36 43 22 27 43 28 38 34 44 15 7 15 24 34 41 31 18 39 41 49 49 48 31 27 13 24 17 21 46 10 45 5 2 41 32 45 43 44 2 36 8 10 26 32 44 41 37 36 29 27 35 2 25 40 29 12 13 47 33 33 31 27 38 8 42 44 27 34 37 30 44 19 40 19 25 7 9 12 44 13 39 28 15 38 17 18 24 4 14 6 37 20 7 49 28
49 16 4 6 27 8 0 46 48 44 20 5 28 32 23 15 46 25 30 7 42 48 32 20 37 12 31 31 20 3 8 43 44 37 24 20 46 49 40 17 42 34 47 19 41 19 8 10 44 38 17 9 10 23 3 21 10 34 1 4 37 9 21 4 20 45 24 15 43 38 7 9 22 3 2 12 48 11 22 41 49 13 25 33 11 28 3 21 37 29 50 48 12 20 2 33 15 0 22 32
39 29 41 10 33 44 47 4 4 43 19 27 5 44 10 41 47 38 36 7 42 35 4 3 5 31 36 45 32 33 26 20 11 42 4 18 35 25 22 39 17 42 40 47 9 24 12 5 37 48 37 28 33 42 31 12 47 42 31 28 24 31 22 9 22 26 28 6 0 24 19 42 15 34 39 25 7 0 4 44 22 42 21 29 7 27 15 3 18 46 6 16 27 28 25 23 29 27 30 3
1 23 46 16 6 8 15 39 33 45 32 4 10 28 34 42 4 23 19 47 19 25 12 20 3 11 43 32 39 47 35 40 20 4 30 0 12 46 39 19 40 21 24 24 23 32 15 1 4 34 48 48 9 34 17 37 45 35 18 33 31 27 47 0 6 27 1 43 22 40 12 36 35 10 34 7 16 49 8 45 32 30 43 15 38 34 1 33 18 44 40 50 46 11 24 1 38 50 18 34
14 30 44 23 14 27 5 30 25 38 25 31 18 42 21 5 50 47 12 43 15 27 16 10 38 40 36 25 40 28 8 28 8 1 0 22 2 5 27 1 44 26 32 36 17 27 41 41 24 28 33 39 4 49 23 42 39 33 41 2 10 23 4 43 49 4 40 0 10 16 1 28 42 7 13 33 35 28 23 33 30 6 21 34 29 18 50 17 0 40 44 35 12 48 28 35 27 17 35 11
7 36 39 49 44 26 31 2 28 28 35 8 34 30 16 38 48 16 29 22 30 23 31 17 45 8 1 46 50 11 6 6 47 19 29 14 45 9 16 48 12 25 5 20 4 21 7 1 11 37 48 16 34 29 33 28 11 8 24 11 19 4 42 41 24 21 4 43 4 46 40 16 20 45 37 25 41 44 0 26 30 23 42 13 1 49 16 12 7 14 48 0 18 40 41 42 10 20 35 39
15 24 5 9 44 16 34 8 9 9 8 14 32 0 1 7 23 42 44 4 5 42 5 49 5 20 40 15 40 49 28 4 48 33 39 41 23 47 23 33 5 31 21 11 5 47 18 29 13 12 7 18 28 12 41 33 33 31 22 47 3 50 26 0 7 14 15 30 10 38 37 16 44 32 1 49 29 45 1 16 31 9 8 8 46 50 15 2 4 37 50 7 10 25 8 17 39 23 22 49
36 8 39 29 15 41 1 18 35 28 34 15 37 42 48 32 41 12 9 45 23 8 27 33 33 35 25 46 32 47 44 42 29 7 45 44 48 47 36 6 24 19 46 35 11 43 41 26 29 50 46 1 32 22 8 39 31 33 34 12 3 28 4 33 9 23 0 6 19 37 37 17 30 32 26 15 49 42 16 1 41 11 2 48 7 10 36 38 18 20 24 21 22 28 28 31 1 3 11 45
14 22 37 18 3 12 34 26 28 50 1 44 10 3 41 42 38 26 29 30 20 2 1 42 5 3 47 31 31 7 25 45 29 36 13 6 23 21 6 0 20 7 44 4 35 34 46 48 35 49 27 4 0 2 21 5 6 17 36 37 50 36 6 28 21 44 9 18 14 15 19 8 48 37 37 32 46 6 29 30 4 6 8 4 8 29 35 39 21 20 0 20 30 31 22 1 24 31 19 12
21 12 45 43 50 31 24 45 37 28 49 41 8 6 19 41 10 3 4 31 24 4 25 3 9 47 29 33 2 23 19 48 9 13 40 8 18 38 27 4 40 25 19 48 6 38 13 16 42 17 21 40 21 46 17 30 42 21 37 18 18 30 15 27 17 4 36 35 17 37 39 6 12 32 4 18 19 17 8 10 8 29 24 3 24 42 7 40 12 44 33 30 48 48 6 14 27 16 49 44
3 11 24 40 43 2 32 11 44 40 47 1 43 20 4 41 36 11 30 48 29 12 1 26 35 33 40 11 23 38 29 26 49 2 40 15 5 21 27 49 35 48 25 27 17 29 17 3 41 22 25 19 8 27 20 43 34 9 28 6 22 31 7 45 34 47 10 13 43 11 36 27 8 10 29 50 14 46 2 4 17 2 48 0 3 42 17 37 1 46 43 48 0 50 42 8 21 26 21 38
37 32 14 45 16 43 45 30 13 21 8 4 23 31 4 0 22 22 37 48 42 4 45 42 28 11 0 49 37 46 36 24 1 25 43 18 42 11 22 4 33 31 9 30 36 38 31 7 9 17 30 25 21 24 42 24 9 42 22 47 11 33 45 13 7 37 31 49 49 27 28 5 7 37 35 17 49 15 50 33 7 29 7 2 27 49 26 37 14 23 33 26 5 27 13 37 38 18 9 36
45 37 41 27 48 26 44 47 15 43 29 47 21 36 50 49 9 50 35 48 22 42 48 27 18 10 38 30 28 48 16 23 34 31 50 32 31 43 28 47 10 31 17 31 41 16 3 50 16 38 48 12 3 45 40 46 30 27 26 7 49 42 4 33 47 28 39 28 21 16 49 5 21 15 36 11 6 40 11 22 1 33 34 5 1 48 0 31 50 26 39 48 42 17 4 39 46 43 16 41
33 39 46 3 3 31 15 9 45 0 5 47 33 14 26 8 11 0 40 35 27 2 7 43 19 11 31 14 4 21 4 37 9 50 15 38 5 4 21 50 4 27 20 11 41 46 19 26 21 33 36 48 35 43 40 4 28 46 43 32 41 48 44 25 21 33 12 26 37 33 0 41 34 20 26 49 41 45 50 11 28 35 33 37 1 47 41 29 42 34 36 7 5 3 32 26 36 44 27 47
0 27 37 9 21 37 7 36 31 6 21 33 41 3 20 16 0 35 46 16 43 5 23 48 8 4 24 18 22 0 14 48 1 25 6 22 11 13 8 16 45 29 50 35 7 44 26 32 28 21 22 46 0 46 43 8 24 41 0 21 15 39 18 16 13 49 13 24 11 21 14 30 24 38 40 5 31 15 37 34 10 9 29 10 29 46 43 27 37 43 22 1 31 14 18 18 12 5 16 49
0 30 28 24 18 17 4 23 6 41 31 16 24 34 26 27 30 43 29 16 9 0 42 14 40 34 32 1 39 48 24 39 2 27 38 45 18 42 42 25 6 23 41 5 31 42 6 10 34 35 0 44 10 43 32 50 0 14 25 40 36 24 28 12 0 40 6 18 31 49 43 12 46 8 17 26 50 23 11 33 33 11 0 43 28 33 16 29 21 41 18 31 14 20 44 39 10 24 7 15
22 24 27 42 32 18 18 31 16 3 39 49 14 13 41 17 20 31 46 15 21 38 47 10 32 40 23 16 38 30 32 10 4 33 26 10 26 18 16 42 21 4 40 36 42 4 27 12 35 22 27 30 34 48 14 40 11 38 6 50 42 12 34 20 45 9 31 20 28 47 36 49 25 25 8 16 29 35 2 38 31 4 43 39 1 6 29 38 44 9 37 10 21 20 30 40 3 10 35 31
31 20 4 5 20 37 47 49 47 49 11 1 27 3 15 3 9 44 41 28 27 27 12 48 21 42 11 24 2 20 30 7 41 34 13 10 45 34 33 41 32 18 43 34 21 7 37 5 25 27 7 1 28 19 23 49 10 8 22 37 29 1 19 19 9 32 3 4 40 10 19 46 29 36 29 50 43 15 29 42 16 36 17 44 29 14 42 14 23 39 0 26 14 19 45 24 25 22 28 14
32 21 10 35 7 13 9 24 29 38 16 19 49 7 13 27 47 4 41 19 17 16 45 32 9 13 5 9 9 7 48 15 28 32 0 35 46 9 34 49 21 50 17 19 31 30 21 27 9 11 20 0 1 39 32 36 26 37 45 35 18 42 25 21 49 25 30 44 8 13 16 29 37 33 49 18 38 19 19 21 4 14 21 31 2 3 16 3 14 35 38 7 0 12 28 49 11 7 42 19
